<svg xmlns="http://www.w3.org/2000/svg" xmlns:xlink="http://www.w3.org/1999/xlink" version="1.1" width="256" height="256" viewBox="0 0 256 256" xml:space="preserve">

<defs>
</defs>
<g style="stroke: none; stroke-width: 0; stroke-dasharray: none; stroke-linecap: butt; stroke-linejoin: miter; stroke-miterlimit: 10; fill: none; fill-rule: nonzero; opacity: 1;" transform="translate(1.4065934065934016 1.4065934065934016) scale(2.81 2.81)" >
	<path d="M 89.932 24.157 c 0.032 -0.087 0.047 -0.176 0.054 -0.267 C 89.987 23.865 90 23.844 90 23.818 c 0 -0.006 -0.003 -0.012 -0.004 -0.018 c -0.002 -0.121 -0.026 -0.24 -0.071 -0.353 c -0.014 -0.034 -0.037 -0.061 -0.055 -0.094 c -0.031 -0.059 -0.057 -0.12 -0.101 -0.173 L 73.042 2.998 c -0.026 -0.032 -0.066 -0.046 -0.095 -0.074 c -0.043 -0.041 -0.073 -0.09 -0.124 -0.123 C 72.8 2.786 72.774 2.785 72.75 2.772 c -0.052 -0.029 -0.106 -0.046 -0.163 -0.065 c -0.078 -0.026 -0.155 -0.046 -0.235 -0.053 c -0.028 -0.002 -0.052 -0.018 -0.08 -0.018 H 17.727 c -0.028 0 -0.052 0.016 -0.08 0.018 c -0.081 0.006 -0.157 0.026 -0.235 0.052 c -0.057 0.019 -0.111 0.037 -0.164 0.066 c -0.023 0.013 -0.049 0.014 -0.071 0.028 c -0.05 0.033 -0.08 0.081 -0.122 0.121 c -0.031 0.029 -0.071 0.044 -0.099 0.076 L 0.23 23.18 c -0.045 0.054 -0.071 0.117 -0.103 0.177 c -0.016 0.031 -0.039 0.057 -0.052 0.089 c -0.046 0.114 -0.069 0.233 -0.072 0.354 C 0.003 23.807 0 23.812 0 23.818 c 0 0.025 0.012 0.045 0.014 0.07 c 0.006 0.092 0.022 0.182 0.054 0.269 c 0.016 0.044 0.037 0.082 0.059 0.123 c 0.02 0.037 0.03 0.078 0.055 0.113 l 44 62.545 c 0.052 0.075 0.116 0.138 0.184 0.195 c 0.012 0.01 0.024 0.018 0.036 0.027 c 0.017 0.013 0.035 0.022 0.052 0.033 c 0.055 0.036 0.112 0.066 0.172 0.091 c 0.025 0.01 0.05 0.02 0.076 0.029 c 0.024 0.008 0.048 0.018 0.073 0.024 c 0.002 0 0.004 0.002 0.006 0.003 c 0.069 0.016 0.139 0.022 0.207 0.023 c 0.003 0 0.005 0.001 0.008 0.001 c 0.001 0 0.002 0 0.002 0 c 0 0 0 0 0 0 s 0 0 0 0 s 0 0 0 0 s 0 0 0 0 c 0.001 0 0.002 0 0.002 0 c 0.003 0 0.005 -0.001 0.008 -0.001 c 0.068 -0.001 0.138 -0.007 0.207 -0.023 c 0.002 0 0.004 -0.002 0.006 -0.003 c 0.025 -0.006 0.048 -0.016 0.073 -0.024 c 0.026 -0.008 0.05 -0.018 0.075 -0.028 c 0.061 -0.025 0.118 -0.055 0.173 -0.091 c 0.018 -0.012 0.036 -0.021 0.052 -0.034 c 0.012 -0.009 0.024 -0.017 0.036 -0.026 c 0.069 -0.057 0.132 -0.12 0.185 -0.195 l 44 -62.545 c 0.025 -0.035 0.035 -0.076 0.055 -0.114 C 89.895 24.239 89.916 24.201 89.932 24.157 z M 17.635 5.315 l 11.511 17.503 H 3.128 L 17.635 5.315 z M 57.752 24.818 L 45 81.784 L 32.249 24.818 H 57.752 z M 32.911 22.818 L 45 5.391 l 12.09 17.428 H 32.911 z M 46.911 4.636 h 23.507 l -11.44 17.396 L 46.911 4.636 z M 31.022 22.032 L 19.581 4.636 h 23.508 L 31.022 22.032 z M 30.199 24.818 l 12.727 56.858 l -40 -56.858 H 30.199 z M 59.801 24.818 h 27.273 l -40 56.859 L 59.801 24.818 z M 60.855 22.818 L 72.365 5.315 l 14.507 17.503 H 60.855 z" style="stroke: none; stroke-width: 1; stroke-dasharray: none; stroke-linecap: butt; stroke-linejoin: miter; stroke-miterlimit: 10; fill: rgb(0,0,0); fill-rule: nonzero; opacity: 1;" transform=" matrix(1 0 0 1 0 0) " stroke-linecap="round" />
</g>
</svg>