<svg xmlns="http://www.w3.org/2000/svg" xmlns:xlink="http://www.w3.org/1999/xlink" version="1.1" width="256" height="256" viewBox="0 0 256 256" xml:space="preserve">

<defs>
</defs>
<g style="stroke: none; stroke-width: 0; stroke-dasharray: none; stroke-linecap: butt; stroke-linejoin: miter; stroke-miterlimit: 10; fill: none; fill-rule: nonzero; opacity: 1;" transform="translate(1.4065934065934016 1.4065934065934016) scale(2.81 2.81)" >
	<path d="M 70.64 89.325 H 26.013 c -2.486 0 -4.508 -2.023 -4.508 -4.508 V 53.464 c 0 -0.553 0.448 -1 1 -1 h 51.644 c 0.553 0 1 0.447 1 1 v 31.353 C 75.148 87.302 73.125 89.325 70.64 89.325 z M 23.504 54.464 v 30.353 c 0 1.383 1.125 2.508 2.508 2.508 H 70.64 c 1.383 0 2.508 -1.125 2.508 -2.508 V 54.464 H 23.504 z" style="stroke: none; stroke-width: 1; stroke-dasharray: none; stroke-linecap: butt; stroke-linejoin: miter; stroke-miterlimit: 10; fill: rgb(0,0,0); fill-rule: nonzero; opacity: 1;" transform=" matrix(1 0 0 1 0 0) " stroke-linecap="round" />
	<path d="M 52.977 89.325 h -9.303 c -0.552 0 -1 -0.447 -1 -1 V 53.464 c 0 -0.553 0.448 -1 1 -1 h 9.303 c 0.553 0 1 0.447 1 1 v 34.861 C 53.977 88.878 53.53 89.325 52.977 89.325 z M 44.675 87.325 h 7.302 V 54.464 h -7.302 V 87.325 z" style="stroke: none; stroke-width: 1; stroke-dasharray: none; stroke-linecap: butt; stroke-linejoin: miter; stroke-miterlimit: 10; fill: rgb(0,0,0); fill-rule: nonzero; opacity: 1;" transform=" matrix(1 0 0 1 0 0) " stroke-linecap="round" />
	<path d="M 7.495 69.421 c -0.256 0 -0.512 -0.098 -0.707 -0.293 l -4.425 -4.425 c -1.758 -1.758 -1.758 -4.618 0 -6.376 l 31.556 -31.556 c 0.851 -0.852 1.983 -1.321 3.188 -1.321 c 1.204 0 2.336 0.469 3.187 1.321 l 4.425 4.425 c 0.391 0.391 0.391 1.024 0 1.414 L 8.202 69.128 C 8.007 69.323 7.751 69.421 7.495 69.421 z M 37.107 27.451 c -0.67 0 -1.3 0.261 -1.774 0.735 L 3.777 59.742 c -0.978 0.978 -0.978 2.57 0 3.547 l 3.718 3.718 l 35.103 -35.103 l -3.718 -3.718 C 38.406 27.712 37.776 27.451 37.107 27.451 z" style="stroke: none; stroke-width: 1; stroke-dasharray: none; stroke-linecap: butt; stroke-linejoin: miter; stroke-miterlimit: 10; fill: rgb(0,0,0); fill-rule: nonzero; opacity: 1;" transform=" matrix(1 0 0 1 0 0) " stroke-linecap="round" />
	<path d="M 18.847 44.257 c -0.141 0 -0.284 -0.03 -0.418 -0.092 c -0.38 -0.175 -0.611 -0.569 -0.578 -0.987 l 1.05 -13.308 c 0.184 -2.331 1.661 -4.283 3.856 -5.092 c 2.194 -0.81 4.584 -0.285 6.238 1.369 c 2.31 2.309 2.31 6.067 0 8.377 l -9.439 9.44 C 19.363 44.156 19.108 44.257 18.847 44.257 z M 24.844 26.4 c -0.462 0 -0.932 0.084 -1.396 0.254 c -1.475 0.544 -2.43 1.805 -2.553 3.372 l -0.837 10.605 l 7.522 -7.522 c 1.529 -1.53 1.529 -4.018 0 -5.548 C 26.818 26.799 25.851 26.4 24.844 26.4 z" style="stroke: none; stroke-width: 1; stroke-dasharray: none; stroke-linecap: butt; stroke-linejoin: miter; stroke-miterlimit: 10; fill: rgb(0,0,0); fill-rule: nonzero; opacity: 1;" transform=" matrix(1 0 0 1 0 0) " stroke-linecap="round" />
	<path d="M 5.927 55.139 c -1.582 0 -3.07 -0.616 -4.188 -1.736 C 0.084 51.75 -0.44 49.36 0.369 47.165 c 0.809 -2.194 2.76 -3.672 5.092 -3.856 l 13.308 -1.05 c 0.417 -0.026 0.812 0.198 0.987 0.578 s 0.095 0.83 -0.201 1.126 l -9.44 9.439 C 8.996 54.522 7.509 55.139 5.927 55.139 z M 16.223 44.467 L 5.618 45.304 c -1.568 0.124 -2.828 1.078 -3.372 2.554 c -0.544 1.475 -0.205 3.02 0.907 4.131 c 1.483 1.483 4.066 1.483 5.548 0 L 16.223 44.467 z" style="stroke: none; stroke-width: 1; stroke-dasharray: none; stroke-linecap: butt; stroke-linejoin: miter; stroke-miterlimit: 10; fill: rgb(0,0,0); fill-rule: nonzero; opacity: 1;" transform=" matrix(1 0 0 1 0 0) " stroke-linecap="round" />
	<path d="M 22.464 54.451 c -0.256 0 -0.512 -0.098 -0.707 -0.293 l -6.906 -6.905 c -0.188 -0.188 -0.293 -0.441 -0.293 -0.707 s 0.105 -0.52 0.293 -0.707 l 6.578 -6.579 c 0.375 -0.375 1.039 -0.375 1.414 0 l 6.906 6.906 c 0.188 0.188 0.293 0.441 0.293 0.707 s -0.105 0.52 -0.293 0.707 l -6.578 6.578 C 22.976 54.353 22.72 54.451 22.464 54.451 z M 16.973 46.546 l 5.492 5.491 l 5.164 -5.164 l -5.492 -5.492 L 16.973 46.546 z" style="stroke: none; stroke-width: 1; stroke-dasharray: none; stroke-linecap: butt; stroke-linejoin: miter; stroke-miterlimit: 10; fill: rgb(0,0,0); fill-rule: nonzero; opacity: 1;" transform=" matrix(1 0 0 1 0 0) " stroke-linecap="round" />
	<path d="M 74.792 46.443 l -0.36 -0.426 c -1.665 -1.97 -3.911 -5.976 -4.621 -8.243 c -1.526 -4.881 -0.415 -9.595 2.642 -11.21 c 1.478 -0.782 3.188 -0.91 4.816 -0.36 c 1.6 0.54 2.962 1.691 3.909 3.284 c 1.762 -0.574 3.545 -0.54 5.104 0.11 c 1.584 0.66 2.785 1.884 3.381 3.447 c 1.233 3.23 -1.042 7.507 -5.409 10.169 c -2.028 1.236 -6.358 2.766 -8.91 3.148 L 74.792 46.443 z M 75.258 27.87 c -0.651 0 -1.29 0.155 -1.872 0.463 c -2.168 1.146 -2.885 4.948 -1.667 8.845 c 0.587 1.876 2.423 5.209 3.885 7.109 c 2.353 -0.464 5.93 -1.758 7.608 -2.781 c 3.487 -2.125 5.456 -5.456 4.58 -7.748 l 0 0 c -0.398 -1.045 -1.208 -1.867 -2.281 -2.314 c -1.305 -0.544 -2.869 -0.47 -4.4 0.209 l -0.899 0.398 l -0.413 -0.893 c -0.704 -1.52 -1.83 -2.607 -3.17 -3.059 C 76.176 27.945 75.714 27.87 75.258 27.87 z" style="stroke: none; stroke-width: 1; stroke-dasharray: none; stroke-linecap: butt; stroke-linejoin: miter; stroke-miterlimit: 10; fill: rgb(0,0,0); fill-rule: nonzero; opacity: 1;" transform=" matrix(1 0 0 1 0 0) " stroke-linecap="round" />
	<path d="M 56.075 25.992 l -0.36 -0.426 c -2.077 -2.458 -4.874 -7.447 -5.755 -10.268 c -1.88 -6.014 -0.537 -11.809 3.195 -13.781 c 1.795 -0.948 3.87 -1.103 5.847 -0.437 c 2.01 0.678 3.715 2.152 4.875 4.192 c 2.221 -0.769 4.472 -0.751 6.432 0.066 c 1.924 0.802 3.382 2.288 4.106 4.185 c 1.504 3.943 -1.31 9.185 -6.689 12.464 c -2.524 1.539 -7.918 3.444 -11.099 3.921 L 56.075 25.992 z M 56.558 2.674 c -0.858 0 -1.701 0.205 -2.47 0.611 c -2.831 1.496 -3.786 6.404 -2.22 11.416 c 0.756 2.418 3.151 6.748 5.019 9.136 c 2.979 -0.562 7.633 -2.237 9.798 -3.556 c 4.483 -2.733 7.003 -7.05 5.861 -10.043 l 0 0 c -0.525 -1.38 -1.593 -2.463 -3.006 -3.052 c -1.707 -0.712 -3.743 -0.618 -5.732 0.264 l -0.899 0.398 l -0.413 -0.893 c -0.914 -1.974 -2.382 -3.387 -4.133 -3.978 C 57.765 2.774 57.157 2.674 56.558 2.674 z" style="stroke: none; stroke-width: 1; stroke-dasharray: none; stroke-linecap: butt; stroke-linejoin: miter; stroke-miterlimit: 10; fill: rgb(0,0,0); fill-rule: nonzero; opacity: 1;" transform=" matrix(1 0 0 1 0 0) " stroke-linecap="round" />
	<path d="M 58.869 47.494 l -0.552 -0.082 c -1.783 -0.268 -4.809 -1.337 -6.225 -2.201 c -3.173 -1.934 -4.751 -4.956 -3.838 -7.351 c 0.44 -1.153 1.324 -2.055 2.491 -2.541 c 1.067 -0.445 2.277 -0.497 3.479 -0.156 c 0.681 -1.048 1.623 -1.808 2.72 -2.178 c 1.198 -0.405 2.456 -0.309 3.548 0.267 c 2.266 1.197 3.074 4.51 1.964 8.057 c -0.495 1.585 -2.064 4.384 -3.227 5.76 L 58.869 47.494 z M 52.668 36.942 c -0.406 0 -0.796 0.074 -1.153 0.223 c -0.654 0.272 -1.149 0.773 -1.391 1.408 l 0 0 c -0.547 1.432 0.747 3.552 3.01 4.93 c 1.06 0.646 3.354 1.485 4.92 1.826 c 0.952 -1.289 2.123 -3.433 2.494 -4.618 c 0.79 -2.529 0.364 -4.976 -0.99 -5.691 c -0.601 -0.317 -1.3 -0.368 -1.974 -0.141 c -0.837 0.282 -1.543 0.968 -1.989 1.931 l -0.413 0.893 l -0.899 -0.398 C 53.737 37.064 53.188 36.942 52.668 36.942 z" style="stroke: none; stroke-width: 1; stroke-dasharray: none; stroke-linecap: butt; stroke-linejoin: miter; stroke-miterlimit: 10; fill: rgb(0,0,0); fill-rule: nonzero; opacity: 1;" transform=" matrix(1 0 0 1 0 0) " stroke-linecap="round" />
</g>
</svg>